<svg width="34" height="32" viewBox="0 0 34 32" fill="none" xmlns="http://www.w3.org/2000/svg">
<path d="M7.06378 30.0826L21.6865 16.5812L28.5677 23.3319M7.06378 30.0826H24.2669C27.1173 30.0826 29.4279 27.8158 29.4279 25.0195V16.5812M7.06378 30.0826C4.21347 30.0826 1.90283 27.8158 1.90283 25.0195V8.14278C1.90283 5.34655 4.21347 3.07976 7.06378 3.07976H18.2458M27.7076 11.2286L27.7076 6.45511M27.7076 6.45511L27.7076 1.68164M27.7076 6.45511L22.8418 6.45511M27.7076 6.45511L32.5734 6.45511M12.2247 10.6743C12.2247 12.0724 11.0694 13.2058 9.64425 13.2058C8.2191 13.2058 7.06378 12.0724 7.06378 10.6743C7.06378 9.27618 8.2191 8.14278 9.64425 8.14278C11.0694 8.14278 12.2247 9.27618 12.2247 10.6743Z" stroke="black" stroke-width="2" stroke-linecap="round" stroke-linejoin="round"/>
</svg>
