<svg width="45" height="45" viewBox="0 0 45 45" fill="none" xmlns="http://www.w3.org/2000/svg">
<ellipse cx="19.5" cy="23" rx="12.5" ry="12" fill="#161F55"/>
<path d="M22 42C27.5695 42 32.911 39.7875 36.8492 35.8492C40.7875 31.911 43 26.5695 43 21C43 15.4305 40.7875 10.089 36.8492 6.15076C32.911 2.21249 27.5695 0 22 0C16.4305 0 11.089 2.21249 7.15076 6.15076C3.21249 10.089 1 15.4305 1 21C1 26.5695 3.21249 31.911 7.15076 35.8492C11.089 39.7875 16.4305 42 22 42ZM15.3555 14.3555C16.1266 13.5844 17.3734 13.5844 18.1363 14.3555L21.9918 18.2109L25.8473 14.3555C26.6184 13.5844 27.8652 13.5844 28.6281 14.3555C29.391 15.1266 29.3992 16.3734 28.6281 17.1363L24.7727 20.9918L28.6281 24.8473C29.3992 25.6184 29.3992 26.8652 28.6281 27.6281C27.857 28.391 26.6102 28.3992 25.8473 27.6281L21.9918 23.7727L18.1363 27.6281C17.3652 28.3992 16.1184 28.3992 15.3555 27.6281C14.5926 26.857 14.5844 25.6102 15.3555 24.8473L19.2109 20.9918L15.3555 17.1363C14.5844 16.3652 14.5844 15.1184 15.3555 14.3555Z" fill="white"/>
</svg>
